<?xml version="1.0" standalone="no"?>
<!DOCTYPE svg PUBLIC "-//W3C//DTD SVG 20010904//EN"
 "http://www.w3.org/TR/2001/REC-SVG-20010904/DTD/svg10.dtd">
<svg version="1.0" xmlns="http://www.w3.org/2000/svg"
 width="512.000000pt" height="512.000000pt" viewBox="0 0 512.000000 512.000000"
 preserveAspectRatio="xMidYMid meet">
<metadata>
Created by potrace 1.14, written by Peter Selinger 2001-2017
</metadata>
<g transform="translate(0.000000,512.000000) scale(0.100000,-0.100000)"
fill="#000000" stroke="none">
<path d="M0 4304 c0 -740 1 -816 16 -810 9 3 22 6 30 6 8 0 14 6 14 13 0 9 14
14 40 15 21 1 78 13 126 27 47 14 92 25 100 25 8 0 14 7 14 15 0 8 5 15 11 15
6 0 9 -7 5 -15 -3 -10 3 -17 19 -21 15 -4 25 -13 25 -24 0 -17 265 -300 281
-300 18 0 197 -129 239 -172 26 -27 51 -48 57 -48 5 0 19 -10 31 -23 23 -24
21 -65 -5 -80 -7 -4 -13 -12 -13 -17 0 -20 24 -9 52 22 32 37 46 31 54 -24 5
-27 1 -43 -16 -66 -29 -40 -24 -76 13 -80 20 -2 27 -9 27 -24 0 -12 7 -29 16
-39 19 -21 12 -75 -9 -62 -8 5 -8 2 1 -9 8 -9 23 -18 35 -20 19 -3 23 -11 29
-68 3 -36 9 -77 13 -91 4 -17 1 -39 -9 -60 -9 -19 -20 -58 -26 -86 -5 -29 -17
-65 -27 -79 -12 -19 -17 -48 -18 -100 0 -63 -4 -76 -24 -98 l-24 -26 21 -1
c43 -3 47 -4 50 -22 2 -10 1 -26 -3 -35 -6 -16 -7 -16 -16 0 -6 10 -18 18 -28
18 -14 0 -20 -10 -25 -40 -4 -26 -13 -43 -24 -46 -55 -17 -59 -33 -13 -55 39
-18 58 -46 43 -61 -7 -7 -17 -6 -32 2 -25 13 -25 13 -34 -22 -6 -26 -5 -26 26
-17 44 12 48 12 48 -6 0 -20 13 -19 56 4 38 20 64 18 64 -4 0 -21 16 -26 46
-15 32 12 42 6 25 -14 -11 -13 -9 -15 8 -11 27 5 77 -21 99 -51 9 -13 25 -34
35 -46 9 -11 17 -25 17 -30 0 -5 21 -45 47 -89 73 -126 96 -186 94 -245 -1
-45 1 -52 24 -64 20 -11 25 -21 25 -52 0 -35 2 -38 19 -29 23 13 31 5 31 -27
0 -18 4 -23 15 -18 25 9 30 -23 7 -45 -12 -10 -26 -19 -32 -19 -5 0 -10 -13
-10 -30 0 -16 -4 -30 -9 -30 -14 0 -24 -41 -13 -52 7 -7 5 -58 -2 -58 -1 0
-27 12 -57 27 -66 32 -159 44 -159 20 0 -10 11 -17 33 -19 26 -2 33 -8 35 -28
2 -14 10 -32 18 -40 22 -26 4 -74 -32 -80 l-29 -6 29 -8 c21 -5 26 -10 17 -16
-16 -9 -6 -30 15 -30 19 0 18 -26 -1 -34 -8 -3 -15 -13 -15 -22 0 -12 -6 -15
-22 -10 -13 3 -26 6 -30 6 -18 0 -6 20 12 20 11 0 20 6 20 14 0 16 -34 31 -49
22 -12 -8 -41 3 -41 16 0 12 -50 56 -75 64 -10 4 -25 13 -33 20 -20 20 -43 17
-49 -6 -3 -11 -12 -20 -20 -20 -22 0 -11 -33 13 -40 43 -10 163 -180 128 -180
-12 0 -41 20 -30 20 4 0 -10 15 -31 33 -22 17 -47 44 -56 59 -9 15 -22 26 -29
23 -17 -6 -32 4 -47 32 -6 13 -18 23 -25 23 -8 0 -19 7 -26 15 -7 8 -23 15
-35 15 -12 0 -28 7 -35 15 -16 19 -46 19 -54 0 -6 -17 -46 -21 -46 -5 0 6 -9
10 -20 10 -11 0 -20 -4 -20 -10 0 -5 9 -10 19 -10 10 0 22 -8 25 -17 4 -9 19
-35 34 -59 21 -32 33 -41 52 -40 19 1 26 -5 28 -21 2 -13 9 -23 16 -23 7 0 37
-18 66 -40 29 -22 61 -40 69 -40 28 1 131 -54 137 -73 3 -10 18 -25 32 -34 55
-35 190 -144 195 -157 3 -8 3 -31 0 -50 -4 -24 -2 -36 6 -36 6 0 11 -8 11 -19
0 -10 7 -24 15 -31 8 -7 15 -19 15 -26 0 -12 56 -14 325 -14 l325 0 0 24 c0
37 16 40 30 6 l12 -30 219 0 220 0 -18 31 c-31 55 -38 67 -53 84 -11 14 -11
18 0 25 26 16 72 -20 84 -67 4 -12 17 -34 30 -48 22 -24 29 -25 128 -25 117 0
126 4 133 61 2 19 14 42 26 51 11 10 19 24 16 32 -6 14 29 126 48 156 5 8 11
24 12 35 2 11 12 32 23 47 11 15 20 34 20 42 0 15 70 76 88 76 5 0 23 15 40
34 16 19 43 37 60 40 40 9 66 39 57 66 -5 17 -12 20 -30 16 -28 -7 -41 7 -21
23 8 7 17 28 21 49 4 20 16 47 28 60 l20 22 -20 0 c-12 0 -23 -7 -27 -15 -7
-18 -57 -20 -74 -3 -7 7 -12 20 -12 30 0 10 -11 36 -25 58 l-25 40 27 1 c16 1
37 2 48 3 18 1 20 7 17 51 -2 28 -10 57 -18 66 -8 8 -14 21 -14 27 0 6 -6 26
-14 44 -8 18 -21 49 -30 69 -10 22 -15 59 -13 95 2 52 5 59 22 59 14 0 24 -11
33 -40 7 -22 19 -46 27 -55 7 -8 17 -33 21 -54 6 -34 8 -37 19 -22 11 15 16
14 50 -16 45 -39 77 -89 95 -143 20 -63 41 -105 54 -105 19 0 86 -64 86 -82 0
-9 4 -19 9 -23 6 -3 24 -26 40 -51 29 -43 30 -46 16 -74 -22 -42 -19 -68 14
-109 26 -32 28 -42 24 -86 -3 -28 -11 -53 -18 -57 -7 -4 -16 -28 -19 -52 l-7
-44 -44 47 c-34 36 -45 56 -45 79 0 40 -41 72 -70 55 -9 -7 -21 -8 -26 -3 -15
13 -82 21 -89 10 -3 -5 -24 -10 -45 -10 -31 0 -43 -6 -60 -29 -11 -16 -19 -36
-18 -43 2 -7 -7 -14 -20 -16 -13 -2 -28 -15 -35 -29 -9 -21 -8 -27 8 -39 24
-18 39 -18 76 1 20 11 35 13 47 6 10 -5 50 -15 88 -22 38 -6 78 -17 89 -24 11
-7 43 -16 71 -19 41 -5 53 -3 58 9 7 18 47 14 58 -6 4 -8 13 -27 18 -42 14
-39 55 -35 55 5 1 30 38 68 65 68 12 0 20 11 24 33 3 19 17 44 31 57 23 22 25
30 23 106 -2 83 -2 83 -31 90 -15 3 -31 12 -34 20 -3 8 -11 14 -19 14 -16 0
-19 36 -3 45 18 12 -22 45 -53 45 -16 0 -27 4 -24 9 3 5 -1 14 -9 21 -8 7 -15
16 -15 21 0 19 -102 215 -124 239 -32 34 -156 215 -156 227 0 6 -12 28 -26 49
-15 21 -31 55 -37 74 -5 21 -31 56 -62 87 -30 28 -58 61 -64 72 -16 28 -14 66
4 81 8 7 15 24 16 39 1 42 77 143 126 166 24 12 48 26 55 33 7 7 19 12 27 12
9 0 31 23 50 50 37 54 85 90 119 90 11 0 24 4 27 10 9 14 136 73 143 66 3 -4
1 -20 -5 -36 -16 -41 12 -103 43 -97 14 2 21 0 18 -8 -3 -6 2 -18 11 -25 12
-10 13 -16 3 -27 -9 -11 -7 -15 10 -20 12 -3 22 -10 22 -16 0 -11 47 -57 58
-57 4 0 13 -9 20 -20 7 -11 17 -20 23 -20 6 0 24 -11 41 -25 16 -14 42 -25 58
-25 38 0 52 -24 34 -59 -12 -23 -12 -26 8 -34 14 -5 29 -2 45 8 35 23 174 15
228 -13 67 -35 98 -45 150 -47 28 -2 61 -5 75 -9 14 -3 39 -9 55 -12 17 -4 59
-19 94 -35 43 -20 88 -31 142 -35 l79 -7 0 1832 0 1831 -2560 0 -2560 0 0
-816z m2207 710 c-3 -3 -12 -4 -19 -1 -8 3 -5 6 6 6 11 1 17 -2 13 -5z m548
-204 c28 -5 76 -12 107 -15 34 -4 67 -14 82 -26 13 -11 40 -19 60 -19 19 0 39
-6 43 -14 8 -13 82 -28 133 -27 42 1 70 -9 70 -23 0 -8 9 -25 20 -38 10 -12
30 -37 44 -54 40 -49 139 -93 208 -91 31 0 62 -4 70 -10 20 -17 132 -20 151
-4 21 17 37 7 30 -19 -4 -16 0 -20 20 -20 29 0 36 -6 155 -133 45 -49 82 -94
82 -102 0 -7 18 -33 40 -57 22 -23 40 -47 40 -52 0 -4 18 -30 40 -56 22 -26
40 -53 40 -60 0 -7 16 -32 35 -56 37 -45 42 -63 23 -82 -18 -18 -25 -15 -32
13 -4 14 -13 25 -21 25 -8 0 -19 8 -24 18 -7 14 -18 17 -46 14 -29 -3 -33 -7
-24 -18 6 -8 17 -14 25 -14 7 0 19 -10 25 -22 7 -13 27 -39 46 -58 18 -19 33
-37 33 -41 0 -4 9 -9 20 -12 14 -3 20 -14 20 -31 0 -14 5 -26 11 -26 21 0 99
-88 93 -104 -12 -30 -34 -19 -133 66 -24 21 -54 38 -66 38 -12 0 -30 9 -40 20
-22 25 -90 28 -99 5 -4 -11 -21 -15 -58 -15 -31 -1 -61 -7 -72 -15 -27 -21
-36 -19 -36 8 0 46 -20 58 -94 58 -46 0 -73 -5 -85 -15 -18 -16 -38 -9 -78 27
-13 12 -29 17 -39 13 -9 -4 -24 0 -33 8 -20 17 -72 29 -86 18 -6 -4 -15 -25
-20 -47 -9 -36 -14 -40 -44 -43 -26 -3 -41 3 -65 26 -74 69 -127 101 -157 95
-17 -3 -35 0 -44 7 -8 6 -31 16 -52 21 -30 6 -44 4 -63 -9 -19 -13 -57 -19
-150 -24 -139 -7 -222 -19 -242 -35 -7 -6 -29 -13 -48 -16 -56 -8 -110 -31
-110 -45 0 -16 -54 -72 -69 -72 -7 0 -8 -16 -5 -44 6 -43 5 -45 -20 -52 -16
-4 -32 -2 -39 5 -18 18 -29 13 -25 -11 2 -12 13 -28 26 -34 27 -13 54 -48 45
-58 -10 -10 -113 -7 -113 4 0 13 -40 13 -60 0 -8 -5 -13 -10 -10 -11 3 0 18
-2 34 -4 35 -5 43 -12 28 -27 -7 -7 -12 -18 -12 -25 0 -10 5 -10 25 -1 22 10
30 8 53 -9 37 -28 35 -47 -8 -51 -65 -6 -118 8 -150 39 -27 28 -30 29 -30 10
0 -11 9 -25 21 -31 11 -7 30 -21 41 -32 18 -18 28 -19 79 -14 47 6 65 3 98
-13 26 -14 62 -21 103 -22 85 -2 118 -15 118 -46 0 -14 -4 -21 -10 -18 -15 10
-30 -4 -23 -21 4 -12 15 -15 44 -11 31 4 41 1 58 -19 13 -15 32 -24 49 -24 45
0 65 -21 66 -71 1 -38 -2 -45 -28 -57 -25 -12 -35 -12 -78 2 -28 9 -68 16 -89
16 -35 0 -39 3 -39 25 0 15 -5 23 -12 21 -7 -3 -28 -7 -45 -10 -29 -5 -35 -2
-49 25 -11 23 -19 28 -27 20 -16 -16 -57 -14 -57 3 0 8 5 18 10 21 17 10 11
25 -9 25 -10 0 -21 -7 -25 -15 -3 -9 -18 -15 -35 -15 -16 0 -31 -6 -35 -15 -9
-24 -33 -17 -59 16 -21 27 -27 30 -45 20 -37 -20 -66 -13 -84 19 -17 30 -41
39 -53 20 -10 -17 -35 -11 -35 8 0 28 -14 41 -50 47 -19 3 -44 15 -54 25 -19
19 -19 20 -3 37 45 46 67 75 67 88 0 22 -22 30 -32 11 -5 -9 -18 -16 -29 -16
-15 0 -19 6 -17 33 3 29 1 32 -27 32 -22 0 -33 7 -43 28 -7 15 -28 33 -45 41
-18 8 -56 34 -85 60 -56 48 -70 54 -90 34 -9 -9 -12 -7 -12 10 0 17 -9 24 -42
32 -24 6 -54 18 -68 26 -60 34 -95 45 -162 54 -39 4 -74 13 -77 18 -3 5 -25
11 -48 14 -43 6 -109 50 -118 79 -6 17 -117 69 -150 69 -11 0 -31 9 -45 20
-14 11 -30 20 -37 20 -6 0 -13 5 -15 12 -2 6 -24 17 -49 24 -131 37 -219 85
-219 119 0 20 19 29 34 16 7 -6 16 -8 19 -4 4 3 7 1 7 -5 0 -7 17 -12 44 -12
27 0 51 -6 60 -16 9 -8 26 -14 38 -12 20 3 18 6 -17 24 -35 17 -41 24 -46 61
-3 23 -1 41 4 40 12 -3 25 21 37 70 7 26 15 40 23 38 20 -8 41 11 33 30 -5 13
-14 16 -36 11 -26 -5 -30 -3 -30 17 1 30 23 57 48 57 12 0 43 -7 68 -16 44
-15 51 -15 98 1 48 16 54 16 100 1 55 -19 86 -14 86 14 0 29 41 35 87 13 21
-10 40 -18 43 -19 37 -11 49 -20 54 -40 4 -13 11 -24 16 -24 6 0 10 -9 10 -20
0 -20 -1 -20 -25 -4 -14 9 -29 14 -32 10 -11 -11 10 -39 42 -56 41 -23 41 -37
1 -51 -20 -7 -36 -17 -36 -21 0 -11 47 -21 72 -15 13 4 31 -2 46 -14 14 -10
32 -19 40 -19 9 0 23 -7 33 -16 21 -19 63 -10 55 12 -4 10 2 14 19 14 13 0 31
10 39 22 14 20 14 22 -6 32 -30 16 -24 31 15 34 29 3 36 8 44 35 8 26 14 32
35 30 20 -1 28 4 32 22 3 13 15 27 26 30 22 7 26 25 9 42 -17 17 -1 34 25 27
17 -4 28 0 39 16 12 17 23 21 54 19 31 -3 38 0 36 14 -2 9 -4 25 -5 34 -2 12
7 19 29 23 26 6 32 4 36 -11 5 -18 37 -27 37 -11 0 9 77 62 89 62 5 0 16 9 26
20 10 11 25 20 33 20 10 0 12 7 8 24 -7 30 4 38 55 38 25 -1 43 5 51 16 17 22
62 42 96 42 16 0 32 4 38 9 8 7 105 34 159 44 32 6 175 -2 230 -13z m-505 -7
c0 -5 -9 -19 -19 -32 -21 -28 -41 -21 -41 15 0 20 5 24 30 24 17 0 30 -3 30
-7z m1075 -63 c3 -5 1 -10 -4 -10 -6 0 -11 5 -11 10 0 6 2 10 4 10 3 0 8 -4
11 -10z m-1275 -79 c0 -18 -18 -21 -30 -6 -10 13 -9 15 9 15 11 0 21 -4 21 -9z
m-1170 -130 c0 -6 -4 -13 -10 -16 -5 -3 -10 1 -10 9 0 9 5 16 10 16 6 0 10 -4
10 -9z m-502 -251 c12 0 22 -4 22 -8 0 -18 -44 -29 -70 -19 -34 15 -33 14 -25
27 4 7 17 9 29 6 11 -3 31 -6 44 -6z m1062 -50 c0 -5 -7 -10 -15 -10 -8 0 -15
5 -15 10 0 6 7 10 15 10 8 0 15 -4 15 -10z m-960 -30 c0 -5 -4 -10 -10 -10 -5
0 -10 5 -10 10 0 6 5 10 10 10 6 0 10 -4 10 -10z m30 -42 c0 -13 -23 -5 -28
10 -2 7 2 10 12 6 9 -3 16 -11 16 -16z m3770 -342 c0 -8 3 -21 6 -30 4 -11 1
-16 -10 -16 -11 0 -16 9 -16 30 0 17 5 30 10 30 6 0 10 -6 10 -14z m-1168
-106 c49 -23 69 -38 101 -81 19 -24 37 -55 42 -69 4 -14 14 -35 22 -48 8 -13
12 -31 9 -39 -6 -14 -9 -13 -27 3 -18 16 -41 19 -154 22 -104 3 -141 0 -167
-12 -18 -8 -55 -18 -83 -22 -27 -4 -59 -13 -70 -20 -28 -20 -51 -17 -88 8 -18
13 -34 24 -37 26 -2 2 2 12 9 24 14 23 2 38 -31 38 -10 0 -18 5 -18 10 0 6 8
13 18 16 9 3 24 10 32 15 8 5 25 13 38 19 12 5 25 17 28 25 4 8 12 15 19 15 7
0 24 9 38 20 14 11 32 20 41 20 9 0 33 9 53 20 29 15 57 20 120 20 45 0 92 -5
105 -10z m-2568 -36 c10 -25 -1 -29 -14 -5 -6 12 -7 21 -1 21 5 0 12 -7 15
-16z m138 -137 c25 -20 50 -37 55 -37 4 0 26 -8 48 -19 22 -10 67 -27 100 -37
99 -29 227 -94 221 -111 -10 -25 20 -67 74 -103 64 -43 120 -77 140 -85 8 -4
29 -14 45 -23 22 -12 66 -18 160 -22 132 -5 171 -20 78 -30 -45 -5 -48 -7 -46
-32 1 -16 0 -28 -2 -28 -2 0 -29 -6 -59 -14 -37 -10 -66 -12 -92 -6 -22 5 -60
12 -85 15 -39 5 -49 11 -58 33 -6 15 -30 39 -54 54 -23 15 -65 49 -93 75 -28
26 -70 61 -94 77 -23 16 -51 44 -62 62 -19 33 -100 94 -123 94 -7 0 -18 7 -25
15 -7 8 -22 15 -34 15 -11 0 -41 18 -65 40 -25 22 -48 40 -51 40 -25 0 -118
119 -103 133 3 4 22 -11 42 -31 20 -21 57 -55 83 -75z m2982 82 c34 -16 39
-36 13 -54 l-21 -15 26 0 c24 0 27 -5 34 -46 3 -25 2 -55 -3 -67 -9 -21 -5
-36 20 -75 9 -14 46 1 60 24 4 8 18 14 31 14 32 0 39 11 18 27 -16 12 -13 17
31 57 27 24 66 49 88 55 53 16 122 5 154 -25 14 -13 30 -24 35 -24 5 0 20 -24
34 -54 35 -75 57 -68 86 25 12 38 26 71 31 74 13 9 49 -14 49 -30 0 -8 11 -22
25 -31 22 -14 31 -15 70 -4 25 7 45 16 45 20 0 5 19 11 43 15 23 4 51 12 62
18 11 6 31 13 45 14 14 2 40 11 59 20 46 21 140 13 177 -16 15 -12 23 -21 18
-21 -64 -2 -139 -22 -172 -48 -20 -16 -57 -39 -82 -53 -25 -13 -53 -30 -62
-37 -19 -16 -67 -43 -118 -68 -19 -9 -63 -21 -97 -27 -46 -8 -65 -16 -69 -29
-8 -26 -20 -22 -57 18 -44 48 -119 75 -178 63 -24 -5 -60 -12 -79 -16 -19 -3
-52 -15 -72 -25 -29 -15 -41 -17 -57 -9 -26 15 -16 41 16 41 15 0 22 4 18 11
-4 6 -14 7 -24 3 -9 -4 -34 -10 -56 -13 -36 -5 -40 -9 -40 -36 0 -19 5 -29 13
-27 7 1 12 -9 12 -24 0 -17 6 -28 20 -31 11 -3 20 -6 20 -7 1 0 3 -18 6 -40 3
-21 19 -61 35 -88 16 -27 29 -53 29 -57 0 -12 79 -116 129 -170 37 -40 43 -43
75 -37 53 10 100 74 116 156 6 36 17 68 22 71 23 15 -7 29 -60 29 -71 0 -102
8 -102 26 0 10 -15 14 -53 14 -31 0 -61 6 -73 15 -10 8 -31 15 -46 15 -56 0
-45 43 15 58 23 6 46 12 52 14 5 2 15 -9 22 -24 21 -43 94 -79 156 -78 28 1
64 -2 79 -5 21 -6 32 -2 51 19 l25 27 26 -32 c14 -17 26 -36 26 -42 1 -7 11
-25 24 -41 l24 -29 27 22 c15 11 32 21 37 21 6 0 33 18 60 40 28 22 56 40 63
40 6 0 20 18 30 40 11 24 33 49 54 62 20 12 38 25 41 29 8 12 57 28 64 22 11
-11 -5 -23 -30 -23 -14 0 -27 -7 -31 -17 -8 -20 -46 -65 -85 -101 -33 -29 -61
-86 -63 -127 -2 -27 -55 -145 -100 -220 -10 -16 -31 -39 -48 -50 -38 -26 -63
-92 -43 -115 8 -8 13 -31 12 -50 -1 -30 -5 -35 -26 -37 -51 -3 -71 -14 -64
-36 5 -16 3 -19 -11 -14 -9 4 -21 7 -26 7 -17 0 -9 39 14 66 21 24 22 32 14
78 -13 76 -28 100 -62 104 -17 2 -35 8 -42 14 -7 6 -32 6 -69 -1 -56 -11 -59
-10 -82 14 -12 14 -28 25 -35 25 -7 1 -28 14 -47 30 -19 17 -38 30 -42 30 -7
0 9 -44 37 -100 7 -14 16 -46 19 -71 5 -35 12 -48 26 -52 24 -6 28 -52 6 -60
-8 -3 -16 -16 -18 -28 -4 -30 -35 -49 -48 -29 -9 15 -29 19 -127 23 -29 2 -55
6 -58 9 -3 3 -35 3 -70 0 -46 -3 -69 -1 -81 9 -9 8 -40 16 -68 19 -47 5 -51 7
-48 29 2 21 -1 23 -25 16 -16 -3 -44 -8 -63 -9 -19 -2 -49 -7 -67 -11 -29 -7
-34 -4 -44 19 -9 19 -17 25 -31 20 -10 -3 -26 0 -35 7 -8 8 -28 12 -44 11 -24
-3 -30 2 -42 30 -13 32 -13 34 25 71 53 51 111 187 80 187 -4 0 -16 -6 -27
-14 -28 -19 -126 -30 -135 -15 -10 16 20 68 44 75 32 10 97 86 94 109 -2 16
-9 20 -38 18 -31 -3 -33 -1 -17 11 9 7 17 19 17 25 0 7 14 17 30 23 31 10 57
44 45 56 -4 4 -51 9 -105 10 -82 3 -102 7 -116 23 -10 11 -30 19 -49 19 -17 0
-40 7 -51 15 -19 14 -19 15 3 21 42 12 38 60 -7 76 -10 4 -6 8 13 13 38 10 53
-6 56 -62 1 -7 13 -24 28 -38 37 -33 122 -36 154 -4 12 12 27 18 39 14 29 -9
65 4 75 28 15 33 78 44 120 21 29 -15 36 -16 50 -4 15 12 14 15 -6 25 l-22 12
29 15 c21 10 28 20 26 37 -2 22 0 23 45 17 27 -4 55 -2 63 4 11 7 3 10 -33 10
-34 0 -49 4 -54 16 -7 20 13 34 50 34 32 0 35 15 7 30 -28 15 -25 28 13 44 41
18 50 19 81 5z m766 -39 c0 -5 -4 -10 -9 -10 -6 0 -13 5 -16 10 -3 6 1 10 9
10 9 0 16 -4 16 -10z m-22 -61 c-2 -6 -8 -10 -13 -10 -5 0 -11 4 -13 10 -2 6
4 11 13 11 9 0 15 -5 13 -11z m-1930 -108 c9 -6 34 -13 55 -16 47 -8 45 -29
-3 -33 -23 -3 -38 2 -46 13 -7 9 -31 19 -53 22 -23 3 -41 10 -41 14 0 12 66
11 88 0z m459 -27 c-3 -3 -12 -4 -19 -1 -8 3 -5 6 6 6 11 1 17 -2 13 -5z
m-1077 -259 c0 -8 -4 -15 -9 -15 -13 0 -22 16 -14 24 11 11 23 6 23 -9z m2578
-472 c2 -8 -5 -13 -17 -13 -12 0 -21 6 -21 16 0 18 31 15 38 -3z m-375 -49
c-4 -10 -9 -12 -15 -6 -12 12 -1 35 12 27 5 -3 6 -13 3 -21z m74 -19 c3 -9 3
-19 -1 -22 -7 -7 -36 16 -36 28 0 15 30 10 37 -6z m113 -135 c0 -5 -4 -10 -10
-10 -5 0 -10 -7 -10 -15 0 -15 -46 -32 -56 -22 -3 3 2 17 13 31 17 25 63 36
63 16z m38 -38 c2 -7 -6 -12 -17 -12 -21 0 -27 11 -14 24 9 9 26 2 31 -12z
m-202 -295 c16 -18 38 -36 48 -40 15 -6 16 -10 6 -22 -20 -24 -47 -17 -74 18
-25 32 -35 77 -18 77 4 0 21 -15 38 -33z m-99 -83 c-9 -10 -38 16 -31 28 4 6
13 4 22 -6 9 -8 13 -19 9 -22z m-2330 -869 c8 -22 -6 -33 -17 -15 -13 20 -12
30 0 30 6 0 13 -7 17 -15z m306 -59 c7 -19 63 -46 74 -36 26 25 100 1 105 -33
2 -15 13 -23 36 -28 18 -4 43 -16 56 -28 12 -11 31 -21 42 -21 23 0 94 -46 94
-61 0 -6 7 -17 15 -25 8 -9 15 -24 15 -35 0 -11 7 -22 15 -25 8 -4 15 -12 15
-19 0 -7 9 -24 20 -38 12 -14 20 -40 20 -61 0 -39 -15 -48 -25 -16 -3 10 -22
29 -41 40 -18 12 -34 27 -34 33 0 8 -4 7 -9 -2 -7 -11 -11 -9 -20 8 -18 32
-30 25 -42 -24 -11 -44 -22 -55 -34 -35 -3 6 -15 10 -25 10 -11 0 -24 9 -30
20 -6 11 -20 20 -30 20 -12 0 -20 7 -20 17 0 9 -7 23 -15 32 -25 28 -53 56
-70 69 -9 8 -14 21 -11 30 3 9 -4 28 -15 41 -16 20 -25 23 -59 17 -36 -6 -41
-4 -54 23 -9 16 -21 31 -27 33 -9 3 -9 9 -1 25 9 17 8 24 -4 34 -14 11 -13 15
8 31 28 21 44 23 51 4z m-97 -77 c10 -17 -13 -36 -27 -22 -12 12 -4 33 11 33
5 0 12 -5 16 -11z m167 -193 c19 -15 24 -56 6 -56 -6 0 -9 7 -5 15 3 9 -3 19
-14 25 -11 6 -20 15 -20 20 0 13 12 12 33 -4z m-108 -26 c3 -5 -6 -12 -20 -16
-29 -7 -41 -1 -30 15 8 14 42 14 50 1z m198 -80 c10 -26 15 -30 38 -25 33 8
41 -3 30 -43 -9 -31 6 -67 36 -85 21 -13 15 -31 -21 -66 -37 -36 -66 -37 -66
-2 0 10 -7 21 -15 25 -8 3 -15 12 -15 21 0 9 7 18 15 21 23 9 18 32 -7 36 -17
2 -23 10 -24 30 -1 17 -11 36 -28 49 -25 19 -34 48 -19 62 3 4 19 7 36 7 23 0
31 -6 40 -30z m-478 10 c3 -5 3 -15 0 -20 -7 -12 -45 5 -45 20 0 13 37 13 45
0z m310 0 c3 -5 14 -10 23 -10 10 0 18 -8 19 -17 1 -10 5 -30 9 -45 4 -18 2
-28 -5 -28 -6 0 -11 -7 -11 -15 0 -8 5 -15 12 -15 18 0 48 -31 48 -50 0 -10
-7 -20 -15 -24 -26 -9 -17 -26 14 -26 16 0 41 -4 55 -10 24 -9 25 -12 14 -35
-9 -21 -9 -31 0 -46 7 -10 12 -25 12 -33 0 -7 7 -19 16 -27 10 -8 13 -21 9
-37 -4 -18 0 -31 17 -49 12 -13 33 -52 46 -86 39 -103 39 -99 6 -87 -33 13
-64 38 -64 53 0 6 8 19 17 29 16 18 15 21 -20 52 -20 18 -37 42 -37 54 0 28
-10 52 -22 52 -5 0 -21 -12 -35 -26 -18 -18 -29 -22 -36 -15 -7 7 -5 17 8 31
20 22 16 24 -38 20 -36 -2 -47 26 -18 47 20 14 21 17 7 32 -9 10 -13 26 -9 39
4 15 0 24 -13 29 -28 10 -34 23 -34 75 0 62 -7 78 -35 78 -29 0 -41 16 -25 35
6 8 11 22 10 32 -1 10 -2 21 -1 26 2 11 69 9 76 -3z m540 -99 c3 -5 1 -12 -5
-16 -5 -3 -10 1 -10 9 0 18 6 21 15 7z m-415 -31 c0 -13 -11 -13 -30 0 -12 8
-11 10 8 10 12 0 22 -4 22 -10z m-500 -65 c0 -8 -4 -17 -10 -20 -6 -4 -10 5
-10 20 0 15 4 24 10 20 6 -3 10 -12 10 -20z m918 -59 c6 -46 -11 -48 -30 -5
-17 40 -17 40 5 37 16 -2 23 -11 25 -32z m-980 2 c-5 -15 -33 -22 -54 -14 -24
9 -6 26 27 26 20 0 29 -4 27 -12z m762 -23 c0 -14 -8 -29 -19 -35 -29 -15 -41
-12 -41 9 0 35 12 51 36 51 19 0 24 -5 24 -25z m276 -113 c14 -11 64 -87 64
-98 0 -6 14 -20 30 -33 17 -12 28 -26 25 -32 -4 -5 -21 7 -39 26 -18 19 -38
35 -45 35 -6 0 -11 7 -11 15 0 7 -6 18 -12 22 -22 13 -58 71 -58 91 0 31 14
35 26 7 6 -15 15 -30 20 -33z m-1156 29 c0 -6 -4 -13 -10 -16 -5 -3 -10 1 -10
9 0 9 5 16 10 16 6 0 10 -4 10 -9z m528 -17 c2 -11 -6 -28 -17 -38 -15 -14
-23 -15 -40 -6 -18 9 -20 14 -10 33 22 42 62 49 67 11z m-68 -186 c0 -44 -13
-63 -36 -54 -18 7 -18 8 -1 17 9 6 17 20 17 33 0 20 7 36 17 36 2 0 3 -15 3
-32z"/>
<path d="M1785 4440 c-3 -11 -11 -20 -16 -20 -5 0 -9 -4 -9 -10 0 -17 26 -11
44 9 10 11 15 25 11 30 -10 17 -23 13 -30 -9z"/>
<path d="M876 4283 c-3 -3 -6 -20 -6 -38 0 -17 -5 -36 -11 -42 -6 -6 -9 -23
-5 -36 7 -31 62 -43 76 -18 5 9 12 12 16 8 11 -11 -28 -36 -57 -37 -15 0 -29
6 -32 14 -4 9 -18 13 -36 12 -43 -3 -50 -15 -13 -22 34 -7 42 -20 16 -26 -13
-2 -12 -7 8 -26 52 -51 82 -72 104 -72 13 0 24 -4 24 -9 0 -5 17 -12 37 -16
20 -4 48 -15 61 -26 31 -24 38 -24 59 1 10 11 27 20 38 20 33 0 52 17 37 32
-8 8 -12 8 -12 1 0 -6 -12 -13 -27 -15 -16 -3 -35 -7 -43 -9 -11 -3 -14 3 -12
22 2 14 -1 37 -7 50 -10 28 -5 42 22 52 19 7 25 77 6 77 -6 0 -20 11 -31 25
-15 19 -29 25 -57 25 -36 0 -71 -23 -71 -47 0 -5 -13 -8 -30 -5 -29 4 -30 7
-30 53 0 45 -9 66 -24 52z m174 -223 c0 -5 -7 -10 -16 -10 -8 0 -12 5 -9 10 3
6 10 10 16 10 5 0 9 -4 9 -10z"/>
<path d="M1620 4270 c0 -5 5 -10 11 -10 5 0 7 5 4 10 -3 6 -8 10 -11 10 -2 0
-4 -4 -4 -10z"/>
<path d="M1172 4214 c-29 -20 -28 -38 3 -52 36 -17 48 -15 43 6 -3 12 2 24 13
31 11 6 19 16 19 21 0 16 -53 12 -78 -6z"/>
<path d="M727 4183 c-11 -11 -8 -23 6 -19 6 1 9 1 5 -1 -13 -8 -9 -35 5 -31
18 6 22 58 4 58 -7 0 -17 -3 -20 -7z"/>
<path d="M1280 4168 c0 -4 14 -9 30 -9 17 -1 35 -2 40 -3 6 -1 11 3 13 8 1 4
-17 9 -40 10 -24 1 -43 -1 -43 -6z"/>
<path d="M1381 4066 c-8 -9 -11 -19 -7 -23 9 -9 29 13 24 27 -2 8 -8 7 -17 -4z"/>
<path d="M4030 4005 c0 -8 6 -15 14 -15 8 0 16 7 20 15 4 10 -1 15 -14 15 -11
0 -20 -7 -20 -15z"/>
<path d="M4082 3988 c3 -7 15 -12 28 -12 13 0 25 5 28 12 2 8 -7 12 -28 12
-21 0 -30 -4 -28 -12z"/>
<path d="M1140 3919 c0 -5 5 -7 10 -4 6 3 10 8 10 11 0 2 -4 4 -10 4 -5 0 -10
-5 -10 -11z"/>
<path d="M2234 3885 c-8 -21 22 -65 44 -65 10 0 27 7 38 15 18 14 18 15 -11
39 -34 29 -63 33 -71 11z"/>
<path d="M2090 3461 c0 -6 5 -13 10 -16 6 -3 10 1 10 9 0 9 -4 16 -10 16 -5 0
-10 -4 -10 -9z"/>
<path d="M2100 3305 c0 -8 4 -15 10 -15 5 0 7 7 4 15 -4 8 -8 15 -10 15 -2 0
-4 -7 -4 -15z"/>
<path d="M2217 3274 c-17 -18 -3 -25 43 -22 28 2 51 8 53 13 2 11 -85 20 -96
9z"/>
<path d="M2132 3253 c4 -19 58 -37 72 -23 6 6 -4 15 -27 25 -46 19 -49 19 -45
-2z"/>
<path d="M2360 3230 c0 -5 14 -10 31 -10 17 0 28 4 24 10 -3 6 -17 10 -31 10
-13 0 -24 -4 -24 -10z"/>
<path d="M2300 3200 c0 -5 4 -10 9 -10 6 0 13 5 16 10 3 6 -1 10 -9 10 -9 0
-16 -4 -16 -10z"/>
<path d="M2230 3161 c0 -12 6 -21 16 -21 9 0 14 7 12 17 -5 25 -28 28 -28 4z"/>
<path d="M2755 3590 c-3 -5 1 -10 9 -10 9 0 16 5 16 10 0 6 -4 10 -9 10 -6 0
-13 -4 -16 -10z"/>
<path d="M2753 3510 c-39 -24 -42 -37 -9 -46 29 -7 46 1 46 21 0 7 9 17 20 20
11 3 20 11 20 16 0 16 -44 10 -77 -11z"/>
<path d="M4055 3410 c3 -5 17 -10 30 -10 13 0 27 5 30 10 4 6 -8 10 -30 10
-22 0 -34 -4 -30 -10z"/>
<path d="M3540 3115 c-15 -8 -53 -14 -93 -15 -116 0 -131 -24 -73 -114 22 -35
46 -59 72 -71 22 -9 46 -24 55 -32 30 -25 93 -53 122 -53 20 0 38 10 60 35 17
19 35 35 40 35 26 0 97 102 97 139 0 41 -25 55 -136 75 -110 19 -112 19 -144
1z"/>
<path d="M2190 919 c1 -44 80 -82 80 -39 0 12 7 20 16 20 9 0 14 6 11 13 -2 6
-11 10 -18 8 -17 -4 -26 -4 -61 5 -20 5 -28 3 -28 -7z"/>
<path d="M925 1760 c-3 -5 0 -10 9 -10 8 0 21 -3 30 -6 11 -4 16 -1 16 10 0
18 -45 23 -55 6z"/>
<path d="M4134 1632 c-12 -35 -27 -60 -60 -98 -49 -54 -53 -79 -19 -113 31
-33 91 -68 101 -59 3 4 8 33 10 65 2 32 9 83 15 113 6 30 12 62 13 71 2 10 -8
20 -26 27 -25 9 -30 8 -34 -6z"/>
<path d="M3800 1280 c0 -5 5 -10 11 -10 5 0 7 5 4 10 -3 6 -8 10 -11 10 -2 0
-4 -4 -4 -10z"/>
<path d="M1440 1272 c0 -14 11 -21 26 -15 21 8 17 23 -6 23 -11 0 -20 -4 -20
-8z"/>
<path d="M4874 1200 c-42 -19 -107 -86 -98 -101 3 -5 1 -9 -3 -9 -5 0 -17 -14
-27 -30 -11 -19 -29 -33 -46 -37 -16 -3 -38 -14 -50 -25 -14 -13 -27 -17 -38
-12 -9 4 -26 8 -37 9 -11 1 -23 3 -27 5 -5 1 -11 3 -15 5 -5 1 -21 7 -36 13
-42 18 -48 7 -25 -41 23 -47 36 -59 57 -52 11 4 12 -3 8 -32 -3 -21 -9 -47
-12 -58 -4 -13 6 -39 30 -75 19 -30 35 -66 35 -80 0 -40 -18 -91 -36 -105 -16
-11 -13 -18 29 -72 48 -61 54 -80 37 -113 -14 -26 -2 -50 25 -50 13 0 30 -6
37 -13 19 -19 54 -37 72 -37 15 0 52 -23 117 -72 20 -16 43 -28 52 -28 21 0
97 -75 97 -95 0 -9 -9 -15 -23 -15 -31 0 -47 -18 -47 -52 l0 -28 85 0 85 0 0
559 c0 495 -2 561 -16 575 -8 9 -20 16 -26 16 -13 0 -81 32 -88 41 -3 4 -21
11 -41 17 -29 8 -45 6 -75 -8z"/>
<path d="M3800 1145 c0 -24 24 -44 37 -31 9 8 -14 56 -27 56 -5 0 -10 -11 -10
-25z"/>
<path d="M3845 1080 c-3 -5 -15 -10 -26 -10 -22 0 -25 -22 -5 -40 8 -6 16 -21
18 -33 3 -20 8 -22 53 -18 28 1 52 5 55 7 9 10 -30 59 -47 59 -12 0 -18 7 -17
23 1 22 -20 30 -31 12z"/>
<path d="M215 1041 c-22 -21 -48 -51 -58 -65 -10 -15 -43 -40 -73 -57 -30 -17
-54 -34 -54 -37 0 -4 12 -15 25 -25 23 -17 25 -17 35 2 5 11 19 23 31 26 11 4
24 18 29 31 5 13 16 24 24 24 7 0 19 7 27 16 8 10 21 13 36 9 19 -4 25 0 36
27 10 24 11 40 3 60 -6 16 -13 28 -16 28 -3 0 -23 -18 -45 -39z"/>
<path d="M270 934 c0 -17 22 -14 28 4 2 7 -3 12 -12 12 -9 0 -16 -7 -16 -16z"/>
<path d="M210 905 c0 -17 2 -18 24 -9 18 7 12 24 -10 24 -8 0 -14 -7 -14 -15z"/>
<path d="M985 910 c3 -5 10 -10 16 -10 5 0 9 5 9 10 0 6 -7 10 -16 10 -8 0
-12 -4 -9 -10z"/>
<path d="M272 889 c2 -7 10 -15 17 -17 8 -3 12 1 9 9 -2 7 -10 15 -17 17 -8 3
-12 -1 -9 -9z"/>
<path d="M3912 871 c4 -30 48 -64 71 -55 26 10 21 34 -8 34 -13 0 -34 10 -45
23 l-22 22 4 -24z"/>
<path d="M0 435 l0 -435 391 0 c383 0 424 3 353 30 -19 8 -23 16 -21 46 2 40
-17 58 -26 24 -7 -26 -37 -26 -71 1 -15 11 -33 19 -40 16 -8 -3 -30 10 -50 29
-19 19 -44 34 -54 34 -12 0 -24 11 -32 30 -14 34 -14 34 -39 18 -22 -13 -55
-4 -49 15 3 6 14 13 25 15 20 3 39 41 34 70 -2 15 11 16 26 1 15 -15 63 -3 63
16 0 8 -6 16 -12 16 -20 2 -51 8 -80 15 -21 5 -32 0 -51 -20 -29 -31 -48 -33
-65 -6 -8 13 -23 20 -42 20 -33 0 -39 14 -12 29 15 9 15 13 4 31 -11 19 -11
24 4 34 25 18 10 34 -31 33 -19 -1 -40 4 -45 9 -14 14 5 64 24 64 21 0 36 24
29 49 -4 18 -11 22 -30 18 -18 -3 -21 -1 -14 6 6 6 11 15 11 19 0 14 -37 9
-50 -7 -18 -22 -50 -19 -50 5 0 12 -7 20 -16 20 -13 0 -15 7 -9 40 6 36 4 41
-18 49 -24 9 -37 36 -37 79 0 12 -4 22 -10 22 -7 0 -10 -152 -10 -435z"/>
<path d="M465 841 c-7 -12 31 -25 45 -16 5 3 10 10 10 16 0 12 -47 12 -55 0z"/>
<path d="M80 811 c0 -12 29 -23 42 -15 6 4 5 10 -3 15 -18 11 -39 11 -39 0z"/>
<path d="M641 811 c-10 -6 -10 -10 -1 -16 15 -10 62 3 55 15 -8 12 -35 13 -54
1z"/>
<path d="M1296 811 c-3 -4 3 -16 13 -25 21 -19 37 -7 27 19 -6 16 -32 20 -40
6z"/>
<path d="M706 731 c-12 -19 65 -61 111 -61 20 0 16 40 -4 40 -10 0 -27 7 -37
15 -22 16 -62 20 -70 6z"/>
<path d="M90 720 c0 -5 7 -10 15 -10 8 0 15 5 15 10 0 6 -7 10 -15 10 -8 0
-15 -4 -15 -10z"/>
<path d="M1380 690 c0 -5 5 -10 11 -10 5 0 7 5 4 10 -3 6 -8 10 -11 10 -2 0
-4 -4 -4 -10z"/>
<path d="M237 666 c-5 -13 30 -46 50 -46 9 0 109 50 102 50 -96 11 -147 9
-152 -4z"/>
<path d="M4348 668 c-16 -5 -28 -15 -28 -22 0 -7 -11 -18 -25 -24 -17 -8 -25
-20 -25 -37 0 -15 -7 -48 -16 -74 -20 -61 -16 -115 9 -119 54 -10 107 30 107
80 0 22 9 42 32 65 40 41 56 118 27 133 -22 12 -45 12 -81 -2z"/>
<path d="M665 590 c3 -5 10 -10 16 -10 5 0 9 5 9 10 0 6 -7 10 -16 10 -8 0
-12 -4 -9 -10z"/>
<path d="M715 560 c-11 -18 5 -30 41 -30 22 0 34 5 34 14 0 24 -62 37 -75 16z"/>
<path d="M807 534 c-9 -10 -9 -66 1 -81 4 -6 21 -15 37 -19 29 -7 70 -32 107
-65 28 -24 98 -43 111 -30 16 16 27 14 21 -3 -3 -8 -13 -16 -22 -18 -12 -3 -3
-12 26 -27 24 -12 47 -20 50 -16 3 3 -4 8 -16 12 l-23 6 21 19 c11 10 20 23
20 27 0 19 -136 91 -172 91 -27 0 -58 18 -58 34 0 15 -42 46 -61 46 -7 0 -17
7 -23 16 -6 8 -15 12 -19 8z"/>
<path d="M330 450 c0 -5 7 -10 15 -10 8 0 15 5 15 10 0 6 -7 10 -15 10 -8 0
-15 -4 -15 -10z"/>
<path d="M1193 293 c-23 -9 -13 -42 20 -67 42 -32 47 -32 47 -2 0 14 5 28 11
32 6 3 -2 14 -20 25 -33 20 -38 21 -58 12z"/>
<path d="M480 256 c0 -28 14 -40 35 -32 11 4 11 10 2 30 -15 33 -37 33 -37 2z"/>
<path d="M1300 214 c0 -27 14 -25 30 7 9 16 7 19 -10 19 -15 0 -20 -7 -20 -26z"/>
<path d="M922 162 c-37 -31 -40 -42 -13 -42 10 0 29 -9 43 -19 13 -11 46 -22
72 -26 27 -4 55 -16 64 -26 12 -14 26 -17 71 -13 76 5 85 19 29 43 -25 11 -49
24 -53 30 -7 13 -117 64 -155 74 -18 4 -34 -1 -58 -21z"/>
<path d="M3892 178 c-16 -16 -15 -48 1 -49 48 -5 82 16 71 44 -7 20 -54 23
-72 5z"/>
<path d="M3800 121 c-5 -11 -10 -42 -10 -70 l0 -51 50 0 c52 0 61 10 41 48 -6
9 -13 34 -16 55 -5 31 -10 37 -30 37 -14 0 -29 -8 -35 -19z"/>
<path d="M4520 66 c0 -8 11 -26 24 -40 20 -23 32 -26 86 -26 62 0 63 0 45 20
-10 11 -30 20 -44 20 -14 0 -39 9 -56 20 -36 24 -55 25 -55 6z"/>
<path d="M4679 64 c-10 -13 -10 -17 2 -25 8 -5 18 -9 23 -9 4 0 6 -7 2 -15 -4
-12 6 -15 60 -15 62 0 64 1 54 20 -6 11 -12 20 -13 20 -1 0 -27 9 -57 20 -65
24 -55 23 -71 4z"/>
</g>
</svg>
